STARTFONT 2.1
COMMENT 
COMMENT This file has been produced by ttf2bdf written by Subhabrata Biswas
COMMENT 
COMMENT For comments, questions, bug reports, send a mail to
COMMENT                                           subhabrata.biswas@usa.net
COMMENT 
FONT -*-Calibri-Medium-R-Normal--35-260-96-96-c-18--fontspecific
SIZE 26 96 96
FONTBOUNDINGBOX 61 42 -18 -11
STARTPROPERTIES 15
FOUNDRY "Misc"
FAMILY_NAME "Calibri"
WEIGHT_NAME "Medium"
SLANT "R"
SETWIDTH_NAME "Normal"
PIXEL_SIZE 17
POINT_SIZE 260
RESOLUTION_X 96
RESOLUTION_Y 96
SPACING "C"
CHARSET_ENCODING "fontspecific"
FONT_ASCENT 33
FONT_DESCENT 9
DEFAULT_CHAR 1
COPYRIGHT "You may wish to put your copyright here"
ENDPROPERTIES
CHARS 255
STARTCHAR C0001
ENCODING 1
SWIDTH 519 0
DWIDTH 18 0
BBX 16 22 1 0
BITMAP
FFFF
C003
C003
C7C3
CFE3
C873
C033
C033
C033
C073
C3E3
C3C3
C303
C303
C303
C303
C003
C383
C383
C003
C003
FFFF
ENDCHAR
STARTCHAR C0002
ENCODING 2
SWIDTH 519 0
DWIDTH 18 0
BBX 16 22 1 0
BITMAP
FFFF
C003
C003
C7C3
CFE3
C873
C033
C033
C033
C073
C3E3
C3C3
C303
C303
C303
C303
C003
C383
C383
C003
C003
FFFF
ENDCHAR
STARTCHAR C0003
ENCODING 3
SWIDTH 519 0
DWIDTH 18 0
BBX 16 22 1 0
BITMAP
FFFF
C003
C003
C7C3
CFE3
C873
C033
C033
C033
C073
C3E3
C3C3
C303
C303
C303
C303
C003
C383
C383
C003
C003
FFFF
ENDCHAR
STARTCHAR C0004
ENCODING 4
SWIDTH 519 0
DWIDTH 18 0
BBX 16 22 1 0
BITMAP
FFFF
C003
C003
C7C3
CFE3
C873
C033
C033
C033
C073
C3E3
C3C3
C303
C303
C303
C303
C003
C383
C383
C003
C003
FFFF
ENDCHAR
STARTCHAR C0005
ENCODING 5
SWIDTH 519 0
DWIDTH 18 0
BBX 16 22 1 0
BITMAP
FFFF
C003
C003
C7C3
CFE3
C873
C033
C033
C033
C073
C3E3
C3C3
C303
C303
C303
C303
C003
C383
C383
C003
C003
FFFF
ENDCHAR
STARTCHAR C0006
ENCODING 6
SWIDTH 519 0
DWIDTH 18 0
BBX 16 22 1 0
BITMAP
FFFF
C003
C003
C7C3
CFE3
C873
C033
C033
C033
C073
C3E3
C3C3
C303
C303
C303
C303
C003
C383
C383
C003
C003
FFFF
ENDCHAR
STARTCHAR C0007
ENCODING 7
SWIDTH 519 0
DWIDTH 18 0
BBX 16 22 1 0
BITMAP
FFFF
C003
C003
C7C3
CFE3
C873
C033
C033
C033
C073
C3E3
C3C3
C303
C303
C303
C303
C003
C383
C383
C003
C003
FFFF
ENDCHAR
STARTCHAR C0008
ENCODING 8
SWIDTH 519 0
DWIDTH 18 0
BBX 16 22 1 0
BITMAP
FFFF
C003
C003
C7C3
CFE3
C873
C033
C033
C033
C073
C3E3
C3C3
C303
C303
C303
C303
C003
C383
C383
C003
C003
FFFF
ENDCHAR
STARTCHAR C0009
ENCODING 9
SWIDTH 519 0
DWIDTH 18 0
BBX 16 22 1 0
BITMAP
FFFF
C003
C003
C7C3
CFE3
C873
C033
C033
C033
C073
C3E3
C3C3
C303
C303
C303
C303
C003
C383
C383
C003
C003
FFFF
ENDCHAR
STARTCHAR C0010
ENCODING 10
SWIDTH 519 0
DWIDTH 18 0
BBX 16 22 1 0
BITMAP
FFFF
C003
C003
C7C3
CFE3
C873
C033
C033
C033
C073
C3E3
C3C3
C303
C303
C303
C303
C003
C383
C383
C003
C003
FFFF
ENDCHAR
STARTCHAR C0011
ENCODING 11
SWIDTH 519 0
DWIDTH 18 0
BBX 16 22 1 0
BITMAP
FFFF
C003
C003
C7C3
CFE3
C873
C033
C033
C033
C073
C3E3
C3C3
C303
C303
C303
C303
C003
C383
C383
C003
C003
FFFF
ENDCHAR
STARTCHAR C0012
ENCODING 12
SWIDTH 519 0
DWIDTH 18 0
BBX 16 22 1 0
BITMAP
FFFF
C003
C003
C7C3
CFE3
C873
C033
C033
C033
C073
C3E3
C3C3
C303
C303
C303
C303
C003
C383
C383
C003
C003
FFFF
ENDCHAR
STARTCHAR C0013
ENCODING 13
SWIDTH 0 0
DWIDTH 0 0
BBX 1 1 0 -1
BITMAP
00
ENDCHAR
STARTCHAR C0014
ENCODING 14
SWIDTH 519 0
DWIDTH 18 0
BBX 16 22 1 0
BITMAP
FFFF
C003
C003
C7C3
CFE3
C873
C033
C033
C033
C073
C3E3
C3C3
C303
C303
C303
C303
C003
C383
C383
C003
C003
FFFF
ENDCHAR
STARTCHAR C0015
ENCODING 15
SWIDTH 519 0
DWIDTH 18 0
BBX 16 22 1 0
BITMAP
FFFF
C003
C003
C7C3
CFE3
C873
C033
C033
C033
C073
C3E3
C3C3
C303
C303
C303
C303
C003
C383
C383
C003
C003
FFFF
ENDCHAR
STARTCHAR C0016
ENCODING 16
SWIDTH 519 0
DWIDTH 18 0
BBX 16 22 1 0
BITMAP
FFFF
C003
C003
C7C3
CFE3
C873
C033
C033
C033
C073
C3E3
C3C3
C303
C303
C303
C303
C003
C383
C383
C003
C003
FFFF
ENDCHAR
STARTCHAR C0017
ENCODING 17
SWIDTH 519 0
DWIDTH 18 0
BBX 16 22 1 0
BITMAP
FFFF
C003
C003
C7C3
CFE3
C873
C033
C033
C033
C073
C3E3
C3C3
C303
C303
C303
C303
C003
C383
C383
C003
C003
FFFF
ENDCHAR
STARTCHAR C0018
ENCODING 18
SWIDTH 519 0
DWIDTH 18 0
BBX 16 22 1 0
BITMAP
FFFF
C003
C003
C7C3
CFE3
C873
C033
C033
C033
C073
C3E3
C3C3
C303
C303
C303
C303
C003
C383
C383
C003
C003
FFFF
ENDCHAR
STARTCHAR C0019
ENCODING 19
SWIDTH 519 0
DWIDTH 18 0
BBX 16 22 1 0
BITMAP
FFFF
C003
C003
C7C3
CFE3
C873
C033
C033
C033
C073
C3E3
C3C3
C303
C303
C303
C303
C003
C383
C383
C003
C003
FFFF
ENDCHAR
STARTCHAR C0020
ENCODING 20
SWIDTH 519 0
DWIDTH 18 0
BBX 16 22 1 0
BITMAP
FFFF
C003
C003
C7C3
CFE3
C873
C033
C033
C033
C073
C3E3
C3C3
C303
C303
C303
C303
C003
C383
C383
C003
C003
FFFF
ENDCHAR
STARTCHAR C0021
ENCODING 21
SWIDTH 519 0
DWIDTH 18 0
BBX 16 22 1 0
BITMAP
FFFF
C003
C003
C7C3
CFE3
C873
C033
C033
C033
C073
C3E3
C3C3
C303
C303
C303
C303
C003
C383
C383
C003
C003
FFFF
ENDCHAR
STARTCHAR C0022
ENCODING 22
SWIDTH 519 0
DWIDTH 18 0
BBX 16 22 1 0
BITMAP
FFFF
C003
C003
C7C3
CFE3
C873
C033
C033
C033
C073
C3E3
C3C3
C303
C303
C303
C303
C003
C383
C383
C003
C003
FFFF
ENDCHAR
STARTCHAR C0023
ENCODING 23
SWIDTH 519 0
DWIDTH 18 0
BBX 16 22 1 0
BITMAP
FFFF
C003
C003
C7C3
CFE3
C873
C033
C033
C033
C073
C3E3
C3C3
C303
C303
C303
C303
C003
C383
C383
C003
C003
FFFF
ENDCHAR
STARTCHAR C0024
ENCODING 24
SWIDTH 519 0
DWIDTH 18 0
BBX 16 22 1 0
BITMAP
FFFF
C003
C003
C7C3
CFE3
C873
C033
C033
C033
C073
C3E3
C3C3
C303
C303
C303
C303
C003
C383
C383
C003
C003
FFFF
ENDCHAR
STARTCHAR C0025
ENCODING 25
SWIDTH 519 0
DWIDTH 18 0
BBX 16 22 1 0
BITMAP
FFFF
C003
C003
C7C3
CFE3
C873
C033
C033
C033
C073
C3E3
C3C3
C303
C303
C303
C303
C003
C383
C383
C003
C003
FFFF
ENDCHAR
STARTCHAR C0026
ENCODING 26
SWIDTH 519 0
DWIDTH 18 0
BBX 16 22 1 0
BITMAP
FFFF
C003
C003
C7C3
CFE3
C873
C033
C033
C033
C073
C3E3
C3C3
C303
C303
C303
C303
C003
C383
C383
C003
C003
FFFF
ENDCHAR
STARTCHAR C0027
ENCODING 27
SWIDTH 519 0
DWIDTH 18 0
BBX 16 22 1 0
BITMAP
FFFF
C003
C003
C7C3
CFE3
C873
C033
C033
C033
C073
C3E3
C3C3
C303
C303
C303
C303
C003
C383
C383
C003
C003
FFFF
ENDCHAR
STARTCHAR C0028
ENCODING 28
SWIDTH 519 0
DWIDTH 18 0
BBX 16 22 1 0
BITMAP
FFFF
C003
C003
C7C3
CFE3
C873
C033
C033
C033
C073
C3E3
C3C3
C303
C303
C303
C303
C003
C383
C383
C003
C003
FFFF
ENDCHAR
STARTCHAR C0029
ENCODING 29
SWIDTH 519 0
DWIDTH 18 0
BBX 16 22 1 0
BITMAP
FFFF
C003
C003
C7C3
CFE3
C873
C033
C033
C033
C073
C3E3
C3C3
C303
C303
C303
C303
C003
C383
C383
C003
C003
FFFF
ENDCHAR
STARTCHAR C0030
ENCODING 30
SWIDTH 519 0
DWIDTH 18 0
BBX 16 22 1 0
BITMAP
FFFF
C003
C003
C7C3
CFE3
C873
C033
C033
C033
C073
C3E3
C3C3
C303
C303
C303
C303
C003
C383
C383
C003
C003
FFFF
ENDCHAR
STARTCHAR C0031
ENCODING 31
SWIDTH 519 0
DWIDTH 18 0
BBX 16 22 1 0
BITMAP
FFFF
C003
C003
C7C3
CFE3
C873
C033
C033
C033
C073
C3E3
C3C3
C303
C303
C303
C303
C003
C383
C383
C003
C003
FFFF
ENDCHAR
STARTCHAR C0032- 
ENCODING 32
SWIDTH 230 0
DWIDTH 8 0
BBX 1 1 0 -1
BITMAP
00
ENDCHAR
STARTCHAR C0033-!
ENCODING 33
SWIDTH 317 0
DWIDTH 11 0
BBX 3 24 5 0
BITMAP
E0
E0
E0
E0
E0
E0
E0
E0
E0
E0
E0
E0
E0
E0
E0
E0
E0
E0
00
00
E0
E0
E0
E0
ENDCHAR
STARTCHAR C0034-"
ENCODING 34
SWIDTH 403 0
DWIDTH 14 0
BBX 9 9 2 15
BITMAP
E380
E380
E180
6180
6180
6180
6180
6180
6180
ENDCHAR
STARTCHAR C0035-#
ENCODING 35
SWIDTH 490 0
DWIDTH 17 0
BBX 16 22 1 0
BITMAP
0E1C
0E1C
0C1C
0C1C
0C18
0C18
7FFF
7FFF
1C38
1C38
1838
1838
1830
1830
FFFE
FFFE
3870
3870
3070
3070
3060
7060
ENDCHAR
STARTCHAR C0036-$
ENCODING 36
SWIDTH 519 0
DWIDTH 18 0
BBX 15 30 1 -4
BITMAP
00C0
00C0
01C0
01C0
07F0
1FF8
3C18
7000
7000
7000
7000
7800
3C00
3F80
0FE0
03F8
007C
003C
001E
000E
000E
001E
401C
F038
7FF0
1FC0
0600
0600
0600
0600
ENDCHAR
STARTCHAR C0037-%
ENCODING 37
SWIDTH 721 0
DWIDTH 25 0
BBX 23 24 1 -1
BITMAP
000038
1F0030
7F8070
6180E0
E1C0C0
C0C1C0
C0C380
C0C300
E1C700
618E00
7F8C00
3E1C00
0038F8
0033FC
00730C
00E70E
00C606
01C606
038606
03070E
07030C
0E03FC
0C01F0
1C0000
ENDCHAR
STARTCHAR C0038-&
ENCODING 38
SWIDTH 692 0
DWIDTH 24 0
BBX 20 24 2 0
BITMAP
07F000
0FF800
1C3C00
381C00
381C00
381C00
381C00
3C3C00
1C7800
1FF000
0FC000
0F00C0
1F80C0
7BC0C0
71E1C0
E0F1C0
E079C0
E03F80
E01F80
E00F00
F01F80
783DE0
3FF8F0
0FC070
ENDCHAR
STARTCHAR C0039-'
ENCODING 39
SWIDTH 230 0
DWIDTH 8 0
BBX 3 9 2 15
BITMAP
E0
E0
E0
60
60
60
60
60
60
ENDCHAR
STARTCHAR C0040-(
ENCODING 40
SWIDTH 317 0
DWIDTH 11 0
BBX 6 30 2 -6
BITMAP
0C
1C
18
38
38
30
70
70
70
60
E0
E0
E0
E0
E0
E0
E0
E0
E0
E0
60
70
70
70
30
38
38
18
1C
0C
ENDCHAR
STARTCHAR C0041-)
ENCODING 41
SWIDTH 317 0
DWIDTH 11 0
BBX 6 30 2 -6
BITMAP
C0
E0
60
70
70
30
38
38
38
18
1C
1C
1C
1C
1C
1C
1C
1C
1C
1C
18
38
38
38
30
70
70
60
E0
C0
ENDCHAR
STARTCHAR C0042-*
ENCODING 42
SWIDTH 490 0
DWIDTH 17 0
BBX 12 13 3 11
BITMAP
0E00
0E00
0620
E660
F7F0
3F80
0E00
3F80
F7F0
E660
0620
0E00
0E00
ENDCHAR
STARTCHAR C0043-+
ENCODING 43
SWIDTH 490 0
DWIDTH 17 0
BBX 15 16 1 2
BITMAP
0380
0380
0380
0380
0380
0380
0380
FFFE
FFFE
0380
0380
0380
0380
0380
0380
0380
ENDCHAR
STARTCHAR C0044-,
ENCODING 44
SWIDTH 259 0
DWIDTH 9 0
BBX 5 9 1 -5
BITMAP
38
38
38
38
38
70
60
E0
C0
ENDCHAR
STARTCHAR C0045--
ENCODING 45
SWIDTH 317 0
DWIDTH 11 0
BBX 8 2 1 7
BITMAP
FF
FF
ENDCHAR
STARTCHAR C0046-.
ENCODING 46
SWIDTH 259 0
DWIDTH 9 0
BBX 4 4 3 0
BITMAP
E0
F0
F0
E0
ENDCHAR
STARTCHAR C0047-/
ENCODING 47
SWIDTH 403 0
DWIDTH 14 0
BBX 13 30 0 -5
BITMAP
0018
0038
0038
0070
0070
0070
00E0
00E0
00C0
01C0
01C0
0180
0380
0380
0700
0700
0700
0E00
0E00
0C00
1C00
1C00
1800
3800
3800
7000
7000
7000
E000
E000
ENDCHAR
STARTCHAR C0048-0
ENCODING 48
SWIDTH 519 0
DWIDTH 18 0
BBX 16 22 1 0
BITMAP
07E0
1FF8
3C3C
381E
700E
700E
E007
E007
E007
E007
E007
E007
E007
E007
E007
E007
700E
700E
781C
3C3C
1FF8
07E0
ENDCHAR
STARTCHAR C0049-1
ENCODING 49
SWIDTH 519 0
DWIDTH 18 0
BBX 13 22 3 0
BITMAP
0700
0F00
3F00
7700
E700
C700
0700
0700
0700
0700
0700
0700
0700
0700
0700
0700
0700
0700
0700
0700
FFF8
FFF8
ENDCHAR
STARTCHAR C0050-2
ENCODING 50
SWIDTH 519 0
DWIDTH 18 0
BBX 14 22 2 0
BITMAP
1F80
7FE0
E0F0
C078
0038
0038
0038
0038
0038
0070
0070
00E0
01E0
03C0
0780
0F00
1E00
3C00
3800
7000
FFFC
FFFC
ENDCHAR
STARTCHAR C0051-3
ENCODING 51
SWIDTH 519 0
DWIDTH 18 0
BBX 14 22 2 0
BITMAP
0FC0
3FF0
70F0
4078
0038
0038
0038
0038
0070
01E0
3FC0
3FE0
00F8
0038
001C
001C
001C
001C
8038
F078
FFF0
1FC0
ENDCHAR
STARTCHAR C0052-4
ENCODING 52
SWIDTH 519 0
DWIDTH 18 0
BBX 16 22 1 0
BITMAP
0078
00F8
01F8
01B8
03B8
0338
0738
0E38
0C38
1C38
1838
3838
7038
7038
E038
FFFF
FFFF
0038
0038
0038
0038
0038
ENDCHAR
STARTCHAR C0053-5
ENCODING 53
SWIDTH 519 0
DWIDTH 18 0
BBX 14 22 2 0
BITMAP
7FF8
7FF8
7000
7000
7000
7000
7000
7000
7000
7FC0
7FF0
0078
003C
001C
001C
001C
001C
001C
0038
C0F0
FFE0
3F80
ENDCHAR
STARTCHAR C0054-6
ENCODING 54
SWIDTH 519 0
DWIDTH 18 0
BBX 15 22 2 0
BITMAP
03F8
0FFC
1E04
3800
7800
7000
7000
E000
E000
E7F0
FFF8
F83C
E01E
E00E
E00E
E00E
E00E
700E
701C
3838
1FF0
0FC0
ENDCHAR
STARTCHAR C0055-7
ENCODING 55
SWIDTH 519 0
DWIDTH 18 0
BBX 14 22 2 0
BITMAP
FFFC
FFFC
001C
0038
0038
0070
0070
0070
00E0
00E0
01C0
01C0
03C0
0380
0380
0700
0700
0E00
0E00
1E00
1C00
1C00
ENDCHAR
STARTCHAR C0056-8
ENCODING 56
SWIDTH 519 0
DWIDTH 18 0
BBX 15 22 1 0
BITMAP
07E0
1FF8
3838
701C
701C
701C
701C
7838
3C78
1FE0
07C0
0FF0
3C78
783C
701E
E00E
E00E
E00E
F01E
783C
3FF8
0FE0
ENDCHAR
STARTCHAR C0057-9
ENCODING 57
SWIDTH 519 0
DWIDTH 18 0
BBX 15 22 1 0
BITMAP
0FE0
3FF0
7838
701C
E01C
E00E
E00E
E00E
E00E
F00E
783E
3FFE
1FCE
000E
000E
001C
001C
003C
0038
60F0
7FE0
3F80
ENDCHAR
STARTCHAR C0058-:
ENCODING 58
SWIDTH 259 0
DWIDTH 9 0
BBX 4 16 3 0
BITMAP
F0
F0
F0
F0
00
00
00
00
00
00
00
00
F0
F0
F0
F0
ENDCHAR
STARTCHAR C0059-;
ENCODING 59
SWIDTH 259 0
DWIDTH 9 0
BBX 6 21 1 -5
BITMAP
3C
3C
3C
3C
00
00
00
00
00
00
00
00
38
38
38
38
30
70
60
E0
C0
ENDCHAR
STARTCHAR C0060-<
ENCODING 60
SWIDTH 490 0
DWIDTH 17 0
BBX 15 16 1 2
BITMAP
0006
001E
007E
01F8
07E0
1F80
7C00
F000
F000
7C00
1F80
07E0
01F8
007E
001E
0006
ENDCHAR
STARTCHAR C0061-=
ENCODING 61
SWIDTH 490 0
DWIDTH 17 0
BBX 14 8 2 6
BITMAP
FFFC
FFFC
0000
0000
0000
0000
FFFC
FFFC
ENDCHAR
STARTCHAR C0062->
ENCODING 62
SWIDTH 490 0
DWIDTH 17 0
BBX 14 16 2 2
BITMAP
8000
E000
F800
7E00
0F80
03E0
00F8
003C
003C
00F8
03E0
0F80
7E00
F800
E000
8000
ENDCHAR
STARTCHAR C0063-?
ENCODING 63
SWIDTH 461 0
DWIDTH 16 0
BBX 13 24 2 0
BITMAP
3F80
FFE0
C0F0
0070
0038
0038
0038
0038
0038
0070
00F0
0FE0
0F80
0E00
0E00
0E00
0E00
0E00
0000
0000
0E00
0E00
0E00
0E00
ENDCHAR
STARTCHAR C0064-@
ENCODING 64
SWIDTH 894 0
DWIDTH 31 0
BBX 25 27 3 -4
BITMAP
003FE000
01FFF800
03C03C00
07000E00
0E000700
1C000700
383CC380
307EC380
70E3C380
71C1C380
61C1C380
E1818380
E3818380
E3818380
E3818300
E3838700
E3878700
E38F8E00
E1F9FC00
E0F0F800
60000000
70000000
78000000
3C000000
1F00C000
0FFFC000
01FF0000
ENDCHAR
STARTCHAR C0065-A
ENCODING 65
SWIDTH 576 0
DWIDTH 20 0
BBX 19 22 1 0
BITMAP
01E000
01E000
03F000
03F000
033800
073800
073800
061C00
0E1C00
0E1C00
0C0E00
1C0E00
1C0E00
380700
3FFF00
3FFF80
700380
700380
7003C0
E001C0
E001C0
E000E0
ENDCHAR
STARTCHAR C0066-B
ENCODING 66
SWIDTH 548 0
DWIDTH 19 0
BBX 15 22 3 0
BITMAP
FFC0
FFF0
E078
E03C
E01C
E01C
E01C
E01C
E038
E078
FFE0
FFF8
E03C
E01E
E00E
E00E
E00E
E00E
E01C
E03C
FFF8
FFE0
ENDCHAR
STARTCHAR C0067-C
ENCODING 67
SWIDTH 548 0
DWIDTH 19 0
BBX 16 22 2 0
BITMAP
03F8
0FFE
1E07
3C01
3800
7000
7000
E000
E000
E000
E000
E000
E000
E000
E000
7000
7000
7800
3801
1E07
0FFE
03F8
ENDCHAR
STARTCHAR C0068-D
ENCODING 68
SWIDTH 634 0
DWIDTH 22 0
BBX 17 22 3 0
BITMAP
FFC000
FFF800
E07C00
E01E00
E00F00
E00700
E00700
E00380
E00380
E00380
E00380
E00380
E00380
E00380
E00380
E00700
E00700
E00E00
E01E00
E07C00
FFF000
FFC000
ENDCHAR
STARTCHAR C0069-E
ENCODING 69
SWIDTH 490 0
DWIDTH 17 0
BBX 12 22 3 0
BITMAP
FFF0
FFF0
E000
E000
E000
E000
E000
E000
E000
E000
FFE0
FFE0
E000
E000
E000
E000
E000
E000
E000
E000
FFF0
FFF0
ENDCHAR
STARTCHAR C0070-F
ENCODING 70
SWIDTH 461 0
DWIDTH 16 0
BBX 12 22 3 0
BITMAP
FFF0
FFF0
E000
E000
E000
E000
E000
E000
E000
E000
FFF0
FFF0
E000
E000
E000
E000
E000
E000
E000
E000
E000
E000
ENDCHAR
STARTCHAR C0071-G
ENCODING 71
SWIDTH 634 0
DWIDTH 22 0
BBX 18 22 2 0
BITMAP
01FE00
07FF80
0F03C0
1C00C0
380000
700000
700000
F00000
E00000
E00000
E07FC0
E07FC0
E001C0
E001C0
E001C0
7001C0
7001C0
3801C0
3C01C0
1F03C0
07FF80
01FE00
ENDCHAR
STARTCHAR C0072-H
ENCODING 72
SWIDTH 634 0
DWIDTH 22 0
BBX 16 22 3 0
BITMAP
E007
E007
E007
E007
E007
E007
E007
E007
E007
E007
FFFF
FFFF
E007
E007
E007
E007
E007
E007
E007
E007
E007
E007
ENDCHAR
STARTCHAR C0073-I
ENCODING 73
SWIDTH 259 0
DWIDTH 9 0
BBX 3 22 3 0
BITMAP
E0
E0
E0
E0
E0
E0
E0
E0
E0
E0
E0
E0
E0
E0
E0
E0
E0
E0
E0
E0
E0
E0
ENDCHAR
STARTCHAR C0074-J
ENCODING 74
SWIDTH 317 0
DWIDTH 11 0
BBX 8 22 0 0
BITMAP
07
07
07
07
07
07
07
07
07
07
07
07
07
07
07
07
07
07
07
8E
FE
7C
ENDCHAR
STARTCHAR C0075-K
ENCODING 75
SWIDTH 519 0
DWIDTH 18 0
BBX 14 22 3 0
BITMAP
E01C
E03C
E078
E0F0
E0E0
E1C0
E380
E700
EF00
EE00
FC00
EE00
EF00
E780
E380
E1C0
E1E0
E0F0
E078
E038
E03C
E01C
ENDCHAR
STARTCHAR C0076-L
ENCODING 76
SWIDTH 432 0
DWIDTH 15 0
BBX 11 22 3 0
BITMAP
E000
E000
E000
E000
E000
E000
E000
E000
E000
E000
E000
E000
E000
E000
E000
E000
E000
E000
E000
E000
FFE0
FFE0
ENDCHAR
STARTCHAR C0077-M
ENCODING 77
SWIDTH 865 0
DWIDTH 30 0
BBX 24 22 3 0
BITMAP
F8001F
FC001F
FC003F
FC003F
EE0077
EE0077
E70067
E700E7
E700E7
E381C7
E381C7
E1C187
E1C387
E1C387
E0E707
E0E707
E0F607
E07E07
E07E07
E03C07
E03C07
E03807
ENDCHAR
STARTCHAR C0078-N
ENCODING 78
SWIDTH 663 0
DWIDTH 23 0
BBX 17 22 3 0
BITMAP
F00380
F80380
FC0380
FC0380
EE0380
EE0380
E70380
E70380
E38380
E3C380
E1C380
E1E380
E0E380
E0F380
E07380
E03B80
E03B80
E01F80
E01F80
E00F80
E00F80
E00780
ENDCHAR
STARTCHAR C0079-O
ENCODING 79
SWIDTH 663 0
DWIDTH 23 0
BBX 20 22 2 0
BITMAP
01FC00
0FFF00
1E0780
3C01C0
7801E0
7000E0
7000F0
E00070
E00070
E00070
E00070
E00070
E00070
E00070
E00070
7000E0
7000E0
7001C0
3803C0
1E0780
0FFF00
03F800
ENDCHAR
STARTCHAR C0080-P
ENCODING 80
SWIDTH 519 0
DWIDTH 18 0
BBX 14 22 3 0
BITMAP
FFC0
FFF0
E078
E038
E01C
E01C
E01C
E01C
E01C
E03C
E038
E0F0
FFE0
FF80
E000
E000
E000
E000
E000
E000
E000
E000
ENDCHAR
STARTCHAR C0081-Q
ENCODING 81
SWIDTH 692 0
DWIDTH 24 0
BBX 23 25 2 -3
BITMAP
01FC00
0FFF00
1E0780
3C01C0
7801E0
7000E0
7000E0
E00070
E00070
E00070
E00070
E00070
E00070
E00070
E00070
7000E0
7000E0
7801E0
3803C0
1E0780
0FFFE0
03F8F8
00007E
00001E
000006
ENDCHAR
STARTCHAR C0082-R
ENCODING 82
SWIDTH 548 0
DWIDTH 19 0
BBX 15 22 3 0
BITMAP
FF80
FFE0
E0F0
E078
E038
E038
E038
E038
E070
E0F0
FFE0
FF80
E1E0
E0E0
E070
E070
E078
E038
E038
E01C
E01C
E01E
ENDCHAR
STARTCHAR C0083-S
ENCODING 83
SWIDTH 461 0
DWIDTH 16 0
BBX 14 22 1 0
BITMAP
07C0
1FF0
3C38
7008
7000
7000
7000
7800
3C00
1F00
0FE0
03F0
00F8
003C
001C
001C
001C
001C
C038
F078
7FF0
1FC0
ENDCHAR
STARTCHAR C0084-T
ENCODING 84
SWIDTH 490 0
DWIDTH 17 0
BBX 17 22 0 0
BITMAP
FFFF80
FFFF80
01C000
01C000
01C000
01C000
01C000
01C000
01C000
01C000
01C000
01C000
01C000
01C000
01C000
01C000
01C000
01C000
01C000
01C000
01C000
01C000
ENDCHAR
STARTCHAR C0085-U
ENCODING 85
SWIDTH 634 0
DWIDTH 22 0
BBX 17 22 3 0
BITMAP
E00380
E00380
E00380
E00380
E00380
E00380
E00380
E00380
E00380
E00380
E00380
E00380
E00380
E00380
E00380
E00380
E00380
700700
780700
3C1E00
1FFC00
07F000
ENDCHAR
STARTCHAR C0086-V
ENCODING 86
SWIDTH 576 0
DWIDTH 20 0
BBX 18 22 1 0
BITMAP
E001C0
E001C0
E001C0
700380
700380
700300
380700
380700
380600
1C0E00
1C0E00
1C0C00
0E1C00
0E1C00
0E3800
073800
073800
03F000
03F000
03E000
01E000
01E000
ENDCHAR
STARTCHAR C0087-W
ENCODING 87
SWIDTH 894 0
DWIDTH 31 0
BBX 29 22 1 0
BITMAP
E0070038
E0070038
700F8038
700F8070
700F8070
700D8070
381DC060
381DC0E0
3819C0E0
1C18E0E0
1C38E1C0
1C38E1C0
1C3061C0
0E307180
0E707380
0E707380
06603B00
07E03B00
07E03F00
07E01F00
03C01E00
03C01E00
ENDCHAR
STARTCHAR C0088-X
ENCODING 88
SWIDTH 519 0
DWIDTH 18 0
BBX 16 22 1 0
BITMAP
E007
700F
780E
381C
3C1C
1C38
0E78
0F70
07E0
07E0
03C0
03C0
07E0
07F0
0E70
1C38
1C38
381C
381E
700E
F00F
E007
ENDCHAR
STARTCHAR C0089-Y
ENCODING 89
SWIDTH 490 0
DWIDTH 17 0
BBX 17 22 0 0
BITMAP
700700
700700
780F00
380E00
3C1E00
1C1C00
1E3C00
0E3800
0F3800
077000
036000
03E000
01C000
01C000
01C000
01C000
01C000
01C000
01C000
01C000
01C000
01C000
ENDCHAR
STARTCHAR C0090-Z
ENCODING 90
SWIDTH 461 0
DWIDTH 16 0
BBX 15 22 1 0
BITMAP
FFFC
FFFC
001C
0038
0078
0070
00E0
00E0
01C0
03C0
0380
0700
0700
0E00
1E00
1C00
3800
3800
7000
F000
FFFE
FFFE
ENDCHAR
STARTCHAR C0091-[
ENCODING 91
SWIDTH 317 0
DWIDTH 11 0
BBX 6 29 3 -5
BITMAP
FC
FC
E0
E0
E0
E0
E0
E0
E0
E0
E0
E0
E0
E0
E0
E0
E0
E0
E0
E0
E0
E0
E0
E0
E0
E0
E0
FC
FC
ENDCHAR
STARTCHAR C0092-\
ENCODING 92
SWIDTH 403 0
DWIDTH 14 0
BBX 13 30 0 -5
BITMAP
E000
6000
7000
7000
3000
3800
3800
1C00
1C00
1C00
0E00
0E00
0600
0700
0700
0300
0380
0380
01C0
01C0
01C0
00E0
00E0
00E0
0070
0070
0030
0038
0038
0018
ENDCHAR
STARTCHAR C0093-]
ENCODING 93
SWIDTH 317 0
DWIDTH 11 0
BBX 5 29 2 -5
BITMAP
F8
F8
18
18
18
18
18
18
18
18
18
18
18
18
18
18
18
18
18
18
18
18
18
18
18
18
18
F8
F8
ENDCHAR
STARTCHAR C0094-^
ENCODING 94
SWIDTH 490 0
DWIDTH 17 0
BBX 14 13 2 9
BITMAP
0700
0F80
0F80
0DC0
1DC0
18E0
38E0
38E0
7070
7070
7038
E038
E01C
ENDCHAR
STARTCHAR C0095-_
ENCODING 95
SWIDTH 490 0
DWIDTH 17 0
BBX 18 2 0 -6
BITMAP
FFFFC0
FFFFC0
ENDCHAR
STARTCHAR C0096-`
ENCODING 96
SWIDTH 288 0
DWIDTH 10 0
BBX 5 5 2 18
BITMAP
E0
60
70
30
18
ENDCHAR
STARTCHAR C0097-a
ENCODING 97
SWIDTH 490 0
DWIDTH 17 0
BBX 13 16 2 0
BITMAP
0FC0
3FF0
7070
4038
0038
0038
0038
0FF8
3FF8
7038
E038
E038
E078
F0F8
7FF8
1F38
ENDCHAR
STARTCHAR C0098-b
ENCODING 98
SWIDTH 519 0
DWIDTH 18 0
BBX 14 24 3 0
BITMAP
E000
E000
E000
E000
E000
E000
E000
E000
E3E0
EFF0
FC78
F038
E03C
E01C
E01C
E01C
E01C
E01C
E01C
E038
F038
FC78
EFF0
E7C0
ENDCHAR
STARTCHAR C0099-c
ENCODING 99
SWIDTH 432 0
DWIDTH 15 0
BBX 12 16 2 0
BITMAP
0FC0
1FE0
3870
7010
7000
E000
E000
E000
E000
E000
E000
F000
7010
7870
3FE0
0FC0
ENDCHAR
STARTCHAR C0100-d
ENCODING 100
SWIDTH 519 0
DWIDTH 18 0
BBX 14 24 2 0
BITMAP
001C
001C
001C
001C
001C
001C
001C
001C
0F9C
3FDC
78FC
703C
701C
E01C
E01C
E01C
E01C
E01C
E01C
F01C
703C
78FC
3FDC
0F1C
ENDCHAR
STARTCHAR C0101-e
ENCODING 101
SWIDTH 490 0
DWIDTH 17 0
BBX 14 16 2 0
BITMAP
0FC0
1FF0
3878
7038
701C
E01C
E01C
FFFC
FFFC
E000
E000
E000
7000
7818
3FF8
0FE0
ENDCHAR
STARTCHAR C0102-f
ENCODING 102
SWIDTH 317 0
DWIDTH 11 0
BBX 11 24 0 0
BITMAP
03E0
0FE0
0E00
1C00
1C00
1C00
1C00
1C00
FFC0
FFC0
1C00
1C00
1C00
1C00
1C00
1C00
1C00
1C00
1C00
1C00
1C00
1C00
1C00
1C00
ENDCHAR
STARTCHAR C0103-g
ENCODING 103
SWIDTH 461 0
DWIDTH 16 0
BBX 15 22 1 -6
BITMAP
0FFE
1FFE
3870
7038
7038
7038
7038
7038
3870
3FE0
77C0
7000
7000
7FF0
3FFC
701E
E00E
E00E
E00E
F03C
7FF8
1FE0
ENDCHAR
STARTCHAR C0104-h
ENCODING 104
SWIDTH 519 0
DWIDTH 18 0
BBX 13 24 3 0
BITMAP
E000
E000
E000
E000
E000
E000
E000
E000
E3C0
EFF0
F870
F078
E038
E038
E038
E038
E038
E038
E038
E038
E038
E038
E038
E038
ENDCHAR
STARTCHAR C0105-i
ENCODING 105
SWIDTH 230 0
DWIDTH 8 0
BBX 3 22 3 0
BITMAP
E0
E0
E0
00
00
00
E0
E0
E0
E0
E0
E0
E0
E0
E0
E0
E0
E0
E0
E0
E0
E0
ENDCHAR
STARTCHAR C0106-j
ENCODING 106
SWIDTH 230 0
DWIDTH 8 0
BBX 7 28 -1 -6
BITMAP
0E
0E
0E
00
00
00
0E
0E
0E
0E
0E
0E
0E
0E
0E
0E
0E
0E
0E
0E
0E
0E
0E
0E
0E
1E
FC
F8
ENDCHAR
STARTCHAR C0107-k
ENCODING 107
SWIDTH 461 0
DWIDTH 16 0
BBX 13 24 3 0
BITMAP
E000
E000
E000
E000
E000
E000
E000
E000
E070
E0E0
E1C0
E380
E700
EE00
FC00
FE00
EE00
E700
E380
E3C0
E1E0
E0F0
E070
E038
ENDCHAR
STARTCHAR C0108-l
ENCODING 108
SWIDTH 230 0
DWIDTH 8 0
BBX 3 24 3 0
BITMAP
E0
E0
E0
E0
E0
E0
E0
E0
E0
E0
E0
E0
E0
E0
E0
E0
E0
E0
E0
E0
E0
E0
E0
E0
ENDCHAR
STARTCHAR C0109-m
ENCODING 109
SWIDTH 807 0
DWIDTH 28 0
BBX 23 16 3 0
BITMAP
E7C1F0
EFF3FC
F8761C
F07C1E
E0380E
E0380E
E0380E
E0380E
E0380E
E0380E
E0380E
E0380E
E0380E
E0380E
E0380E
E0380E
ENDCHAR
STARTCHAR C0110-n
ENCODING 110
SWIDTH 519 0
DWIDTH 18 0
BBX 13 16 3 0
BITMAP
E7C0
EFF0
F870
F078
E038
E038
E038
E038
E038
E038
E038
E038
E038
E038
E038
E038
ENDCHAR
STARTCHAR C0111-o
ENCODING 111
SWIDTH 519 0
DWIDTH 18 0
BBX 15 16 2 0
BITMAP
07E0
1FF8
383C
701C
701E
E00E
E00E
E00E
E00E
E00E
E00E
F01C
701C
7838
3FF0
0FC0
ENDCHAR
STARTCHAR C0112-p
ENCODING 112
SWIDTH 519 0
DWIDTH 18 0
BBX 14 22 3 -6
BITMAP
E3E0
EFF0
FC78
F038
E01C
E01C
E01C
E01C
E01C
E01C
E01C
E038
F038
FC78
EFF0
E7C0
E000
E000
E000
E000
E000
E000
ENDCHAR
STARTCHAR C0113-q
ENCODING 113
SWIDTH 519 0
DWIDTH 18 0
BBX 14 22 2 -6
BITMAP
0F9C
3FDC
78FC
703C
701C
E01C
E01C
E01C
E01C
E01C
E01C
F01C
703C
78FC
3FDC
0F1C
001C
001C
001C
001C
001C
001C
ENDCHAR
STARTCHAR C0114-r
ENCODING 114
SWIDTH 346 0
DWIDTH 12 0
BBX 9 16 3 0
BITMAP
E780
EF80
F800
F000
F000
E000
E000
E000
E000
E000
E000
E000
E000
E000
E000
E000
ENDCHAR
STARTCHAR C0115-s
ENCODING 115
SWIDTH 403 0
DWIDTH 14 0
BBX 11 16 1 0
BITMAP
1F80
7FC0
F0C0
E000
E000
F000
7800
3F00
0FC0
03E0
00E0
00E0
00E0
C1C0
FFC0
7F00
ENDCHAR
STARTCHAR C0116-t
ENCODING 116
SWIDTH 346 0
DWIDTH 12 0
BBX 10 20 0 0
BITMAP
1C00
1C00
1C00
1C00
FFC0
FFC0
1C00
1C00
1C00
1C00
1C00
1C00
1C00
1C00
1C00
1C00
1C00
1E00
0FC0
07C0
ENDCHAR
STARTCHAR C0117-u
ENCODING 117
SWIDTH 519 0
DWIDTH 18 0
BBX 13 16 3 0
BITMAP
E038
E038
E038
E038
E038
E038
E038
E038
E038
E038
E038
E038
F078
70F8
7FB8
1F38
ENDCHAR
STARTCHAR C0118-v
ENCODING 118
SWIDTH 461 0
DWIDTH 16 0
BBX 14 16 1 0
BITMAP
E01C
E01C
E01C
7038
7038
7030
3870
3870
3860
1CE0
1CE0
0CC0
0FC0
0FC0
0780
0780
ENDCHAR
STARTCHAR C0119-w
ENCODING 119
SWIDTH 721 0
DWIDTH 25 0
BBX 23 16 1 0
BITMAP
C0300E
E0780C
E0781C
E0781C
707C1C
70FC38
70FC38
38CE38
39CE30
39CE70
198670
1D8760
1F87E0
0F83E0
0F03C0
0F03C0
ENDCHAR
STARTCHAR C0120-x
ENCODING 120
SWIDTH 432 0
DWIDTH 15 0
BBX 14 16 0 0
BITMAP
701C
7038
3870
3C70
1CE0
0EE0
0FC0
0780
07C0
0FC0
1CE0
1CE0
3870
7878
7038
E01C
ENDCHAR
STARTCHAR C0121-y
ENCODING 121
SWIDTH 461 0
DWIDTH 16 0
BBX 14 22 1 -6
BITMAP
E01C
E01C
E01C
7038
7038
7030
3870
3870
1C60
1CE0
1CE0
0EC0
0FC0
0FC0
0780
0780
0700
0700
0700
0E00
0E00
1E00
ENDCHAR
STARTCHAR C0122-z
ENCODING 122
SWIDTH 403 0
DWIDTH 14 0
BBX 11 16 2 0
BITMAP
FFC0
FFE0
01C0
01C0
0380
0700
0700
0E00
1C00
1C00
3800
3800
7000
E000
FFE0
FFE0
ENDCHAR
STARTCHAR C0123-{
ENCODING 123
SWIDTH 317 0
DWIDTH 11 0
BBX 9 30 1 -6
BITMAP
0780
0F80
0E00
0C00
0C00
0C00
0C00
0C00
0C00
0C00
1C00
1C00
1C00
3800
7000
7000
3800
1C00
1C00
1C00
0C00
0C00
0C00
0C00
0C00
0C00
0C00
0E00
0F80
0780
ENDCHAR
STARTCHAR C0124-|
ENCODING 124
SWIDTH 461 0
DWIDTH 16 0
BBX 2 31 7 -6
BITMAP
C0
C0
C0
C0
C0
C0
C0
C0
C0
C0
C0
C0
C0
C0
C0
C0
C0
C0
C0
C0
C0
C0
C0
C0
C0
C0
C0
C0
C0
C0
C0
ENDCHAR
STARTCHAR C0125-}
ENCODING 125
SWIDTH 317 0
DWIDTH 11 0
BBX 8 30 2 -6
BITMAP
F0
F8
38
18
18
18
18
18
18
18
18
1C
1C
0C
07
07
0E
1C
1C
1C
18
18
18
18
18
18
18
38
F8
F0
ENDCHAR
STARTCHAR C0126-~
ENCODING 126
SWIDTH 490 0
DWIDTH 17 0
BBX 15 6 1 13
BITMAP
3E00
7F06
E786
C3CE
C1FC
00F8
ENDCHAR
STARTCHAR C0127
ENCODING 127
SWIDTH 519 0
DWIDTH 18 0
BBX 16 22 1 0
BITMAP
FFFF
C003
C003
C7C3
CFE3
C873
C033
C033
C033
C073
C3E3
C3C3
C303
C303
C303
C303
C003
C383
C383
C003
C003
FFFF
ENDCHAR
STARTCHAR C0128
ENCODING 128
SWIDTH 519 0
DWIDTH 18 0
BBX 16 22 1 0
BITMAP
00FC
03FF
0707
0E01
1C00
1C00
1C00
3800
FFE0
FFE0
3800
3800
3800
FFE0
FFE0
3800
1C00
1C00
1E01
0F07
07FF
01FC
ENDCHAR
STARTCHAR C0129
ENCODING 129
SWIDTH 519 0
DWIDTH 18 0
BBX 16 22 1 0
BITMAP
FFFF
C003
C003
C7C3
CFE3
C873
C033
C033
C033
C073
C3E3
C3C3
C303
C303
C303
C303
C003
C383
C383
C003
C003
FFFF
ENDCHAR
STARTCHAR C0130
ENCODING 130
SWIDTH 259 0
DWIDTH 9 0
BBX 5 9 1 -5
BITMAP
38
38
38
38
38
70
60
E0
C0
ENDCHAR
STARTCHAR C0131
ENCODING 131
SWIDTH 317 0
DWIDTH 11 0
BBX 12 30 -1 -6
BITMAP
01F0
07F0
0700
0E00
0E00
0E00
0E00
0E00
7FE0
7FE0
0E00
0E00
0E00
0E00
0E00
0E00
0E00
0E00
0E00
0E00
0E00
0E00
0E00
0E00
0E00
0E00
0E00
1C00
FC00
F800
ENDCHAR
STARTCHAR C0132
ENCODING 132
SWIDTH 432 0
DWIDTH 15 0
BBX 11 9 1 -5
BITMAP
38E0
38E0
38E0
38E0
30E0
71C0
6180
E380
C300
ENDCHAR
STARTCHAR C0133
ENCODING 133
SWIDTH 692 0
DWIDTH 24 0
BBX 19 4 3 0
BITMAP
F1E1E0
F1E1E0
F1E1E0
F1E1E0
ENDCHAR
STARTCHAR C0134
ENCODING 134
SWIDTH 490 0
DWIDTH 17 0
BBX 13 21 2 3
BITMAP
0700
0700
0700
0700
0300
0300
FFF8
FFF8
0300
0700
0700
0700
0700
0700
0700
0700
0700
0700
0300
0300
0300
ENDCHAR
STARTCHAR C0135
ENCODING 135
SWIDTH 490 0
DWIDTH 17 0
BBX 13 24 2 0
BITMAP
0700
0700
0700
0700
0700
0300
FFF8
FFF8
0700
0700
0700
0700
0700
0700
0700
0700
FFF8
FFF8
0300
0700
0700
0700
0700
0700
ENDCHAR
STARTCHAR C0136
ENCODING 136
SWIDTH 403 0
DWIDTH 14 0
BBX 9 5 2 18
BITMAP
1C00
3E00
3600
6300
E380
ENDCHAR
STARTCHAR C0137
ENCODING 137
SWIDTH 1038 0
DWIDTH 36 0
BBX 35 24 1 -1
BITMAP
0000380000
1F00300000
7F80700000
6180E00000
E1C0C00000
C0C1C00000
C0C3800000
C0C3000000
E1C7000000
618E000000
7F8C000000
3E1C000000
0038F80F80
0033FC3FC0
00730C30C0
00E70E70E0
00C6066060
01C6066060
0386066060
03070E70E0
07030C30C0
0E03FC3FC0
0C01F01F00
1C00000000
ENDCHAR
STARTCHAR C0138
ENCODING 138
SWIDTH 461 0
DWIDTH 16 0
BBX 14 29 1 0
BITMAP
78F0
38E0
1DC0
0F80
0700
0000
0000
07C0
1FF0
3C38
7008
7000
7000
7000
7800
3C00
1F00
0FE0
03F0
00F8
003C
001C
001C
001C
001C
C038
F078
7FF0
1FC0
ENDCHAR
STARTCHAR C0139
ENCODING 139
SWIDTH 346 0
DWIDTH 12 0
BBX 7 14 2 2
BITMAP
0E
1C
18
38
70
70
E0
E0
70
70
38
18
1C
0E
ENDCHAR
STARTCHAR C0140
ENCODING 140
SWIDTH 865 0
DWIDTH 30 0
BBX 27 22 2 0
BITMAP
01FFFFE0
0FFFFFE0
1E07C000
3C01C000
3801C000
7001C000
7001C000
E001C000
E001C000
E001C000
E001FFC0
E001FFC0
E001C000
E001C000
E001C000
7001C000
7001C000
7801C000
3801C000
1E07C000
0FFFFFE0
03FFFFE0
ENDCHAR
STARTCHAR C0141
ENCODING 141
SWIDTH 519 0
DWIDTH 18 0
BBX 16 22 1 0
BITMAP
FFFF
C003
C003
C7C3
CFE3
C873
C033
C033
C033
C073
C3E3
C3C3
C303
C303
C303
C303
C003
C383
C383
C003
C003
FFFF
ENDCHAR
STARTCHAR C0142
ENCODING 142
SWIDTH 461 0
DWIDTH 16 0
BBX 15 29 1 0
BITMAP
78F0
38E0
1DC0
0F80
0700
0000
0000
FFFC
FFFC
001C
0038
0078
0070
00E0
00E0
01C0
03C0
0380
0700
0700
0E00
1E00
1C00
3800
3800
7000
F000
FFFE
FFFE
ENDCHAR
STARTCHAR C0143
ENCODING 143
SWIDTH 519 0
DWIDTH 18 0
BBX 16 22 1 0
BITMAP
FFFF
C003
C003
C7C3
CFE3
C873
C033
C033
C033
C073
C3E3
C3C3
C303
C303
C303
C303
C003
C383
C383
C003
C003
FFFF
ENDCHAR
STARTCHAR C0144
ENCODING 144
SWIDTH 519 0
DWIDTH 18 0
BBX 16 22 1 0
BITMAP
FFFF
C003
C003
C7C3
CFE3
C873
C033
C033
C033
C073
C3E3
C3C3
C303
C303
C303
C303
C003
C383
C383
C003
C003
FFFF
ENDCHAR
STARTCHAR C0145
ENCODING 145
SWIDTH 259 0
DWIDTH 9 0
BBX 6 9 2 15
BITMAP
0C
18
38
38
70
70
F0
F0
60
ENDCHAR
STARTCHAR C0146
ENCODING 146
SWIDTH 259 0
DWIDTH 9 0
BBX 5 9 1 15
BITMAP
38
38
38
38
38
70
60
E0
C0
ENDCHAR
STARTCHAR C0147
ENCODING 147
SWIDTH 432 0
DWIDTH 15 0
BBX 12 9 2 15
BITMAP
0C30
1860
38E0
30C0
71C0
61C0
E1C0
E3C0
6180
ENDCHAR
STARTCHAR C0148
ENCODING 148
SWIDTH 432 0
DWIDTH 15 0
BBX 11 9 1 15
BITMAP
38E0
38E0
38E0
38E0
30E0
71C0
6180
E380
C300
ENDCHAR
STARTCHAR C0149
ENCODING 149
SWIDTH 490 0
DWIDTH 17 0
BBX 11 11 3 6
BITMAP
1F00
3F80
7FC0
FFE0
FFE0
FFE0
FFE0
FFE0
7FC0
3F80
1F00
ENDCHAR
STARTCHAR C0150
ENCODING 150
SWIDTH 490 0
DWIDTH 17 0
BBX 18 2 0 8
BITMAP
FFFFC0
FFFFC0
ENDCHAR
STARTCHAR C0151
ENCODING 151
SWIDTH 923 0
DWIDTH 32 0
BBX 27 2 3 8
BITMAP
FFFFFFE0
FFFFFFE0
ENDCHAR
STARTCHAR C0152
ENCODING 152
SWIDTH 461 0
DWIDTH 16 0
BBX 11 4 2 18
BITMAP
7860
FE60
CFE0
C3C0
ENDCHAR
STARTCHAR C0153
ENCODING 153
SWIDTH 721 0
DWIDTH 25 0
BBX 22 10 1 12
BITMAP
FF3838
FF3C3C
183C7C
18347C
18365C
1836DC
1832DC
18339C
18339C
18319C
ENDCHAR
STARTCHAR C0154
ENCODING 154
SWIDTH 403 0
DWIDTH 14 0
BBX 11 23 1 0
BITMAP
71C0
3180
1B00
1F00
0E00
0000
0000
1F80
7FC0
F0C0
E000
E000
F000
7800
3F00
0FC0
03E0
00E0
00E0
00E0
C1C0
FFC0
7F00
ENDCHAR
STARTCHAR C0155
ENCODING 155
SWIDTH 346 0
DWIDTH 12 0
BBX 6 14 3 2
BITMAP
E0
E0
70
30
38
1C
1C
1C
1C
38
30
70
E0
E0
ENDCHAR
STARTCHAR C0156
ENCODING 156
SWIDTH 865 0
DWIDTH 30 0
BBX 27 16 2 0
BITMAP
07E03E00
1FF8FF80
3C3DC3C0
700F81C0
700F80E0
E00700E0
E00700E0
E007FFE0
E007FFE0
E0070000
E0070000
700F0000
700F8000
3C3DC0C0
1FF8FFC0
07E07F00
ENDCHAR
STARTCHAR C0157
ENCODING 157
SWIDTH 519 0
DWIDTH 18 0
BBX 16 22 1 0
BITMAP
FFFF
C003
C003
C7C3
CFE3
C873
C033
C033
C033
C073
C3E3
C3C3
C303
C303
C303
C303
C003
C383
C383
C003
C003
FFFF
ENDCHAR
STARTCHAR C0158
ENCODING 158
SWIDTH 403 0
DWIDTH 14 0
BBX 11 23 2 0
BITMAP
E380
6300
3600
3E00
1C00
0000
0000
FFC0
FFE0
01C0
01C0
0380
0700
0700
0E00
1C00
1C00
3800
3800
7000
E000
FFE0
FFE0
ENDCHAR
STARTCHAR C0159
ENCODING 159
SWIDTH 490 0
DWIDTH 17 0
BBX 17 27 0 0
BITMAP
0E1C00
0E1C00
0E1C00
000000
000000
700700
700700
780F00
380E00
3C1E00
1C1C00
1E3C00
0E3800
0F3800
077000
036000
03E000
01C000
01C000
01C000
01C000
01C000
01C000
01C000
01C000
01C000
01C000
ENDCHAR
STARTCHAR C0160
ENCODING 160
SWIDTH 230 0
DWIDTH 8 0
BBX 1 1 0 -1
BITMAP
00
ENDCHAR
STARTCHAR C0161
ENCODING 161
SWIDTH 317 0
DWIDTH 11 0
BBX 3 24 3 -4
BITMAP
E0
E0
E0
E0
00
00
E0
E0
E0
E0
E0
E0
E0
E0
E0
E0
E0
E0
E0
E0
E0
E0
E0
E0
ENDCHAR
STARTCHAR C0162
ENCODING 162
SWIDTH 490 0
DWIDTH 17 0
BBX 12 22 3 0
BITMAP
0300
0300
0300
0FC0
1FF0
3870
7010
7000
E000
E000
E000
E000
E000
E000
F000
7010
7870
3FF0
0FC0
0300
0300
0300
ENDCHAR
STARTCHAR C0163
ENCODING 163
SWIDTH 519 0
DWIDTH 18 0
BBX 15 22 1 0
BITMAP
01F8
07FE
0F0E
0E02
1C00
1C00
1C00
1C00
1C00
1C00
FFF0
FFF0
1C00
1C00
1C00
1C00
1C00
1C00
1C00
1C00
FFFE
FFFE
ENDCHAR
STARTCHAR C0164
ENCODING 164
SWIDTH 490 0
DWIDTH 17 0
BBX 15 20 1 0
BITMAP
E00E
700E
701C
3FDC
3FF8
1C38
3818
301C
701C
701C
701C
701C
301C
3818
3C38
1FF8
3FF8
701C
700E
E00E
ENDCHAR
STARTCHAR C0165
ENCODING 165
SWIDTH 519 0
DWIDTH 18 0
BBX 15 22 1 0
BITMAP
E00E
F01E
701C
783C
3838
1C70
1C70
0EE0
0EE0
07C0
0380
0380
7FFC
7FFC
0380
0380
0380
7FFC
7FFC
0380
0380
0380
ENDCHAR
STARTCHAR C0166
ENCODING 166
SWIDTH 490 0
DWIDTH 17 0
BBX 3 31 7 -6
BITMAP
E0
E0
E0
E0
E0
E0
E0
E0
E0
E0
E0
E0
00
00
00
00
00
00
00
E0
E0
E0
E0
E0
E0
E0
E0
E0
E0
E0
E0
ENDCHAR
STARTCHAR C0167
ENCODING 167
SWIDTH 490 0
DWIDTH 17 0
BBX 14 27 2 -3
BITMAP
07E0
1FF0
1C30
3800
3800
3800
3C00
1E00
1FC0
3FF0
71F8
E038
E01C
E01C
F01C
781C
7E38
1FF0
07E0
01E0
00F0
0070
0070
4070
70E0
7FC0
1F80
ENDCHAR
STARTCHAR C0168
ENCODING 168
SWIDTH 403 0
DWIDTH 14 0
BBX 9 3 2 19
BITMAP
E380
E380
E380
ENDCHAR
STARTCHAR C0169
ENCODING 169
SWIDTH 836 0
DWIDTH 29 0
BBX 23 24 3 0
BITMAP
01FF00
07FFC0
0F01F0
1C0038
38001C
707E0C
60FF0C
61C10E
E38006
C30006
C30006
C30006
C30006
C30006
C30006
E38106
E1C30E
61FF0C
707C1C
300018
3C0078
1F01F0
07FFC0
01FF00
ENDCHAR
STARTCHAR C0170
ENCODING 170
SWIDTH 403 0
DWIDTH 14 0
BBX 10 16 2 6
BITMAP
3F00
7F80
4380
0180
0180
3F80
7F80
E180
E180
E380
FF80
3D80
0000
0000
FFC0
FFC0
ENDCHAR
STARTCHAR C0171
ENCODING 171
SWIDTH 519 0
DWIDTH 18 0
BBX 13 14 2 2
BITMAP
0E38
1C30
1870
38E0
70E0
71C0
E380
E380
71C0
70E0
38E0
1870
1C38
0E18
ENDCHAR
STARTCHAR C0172
ENCODING 172
SWIDTH 490 0
DWIDTH 17 0
BBX 15 6 1 5
BITMAP
FFFE
FFFE
0006
0006
0006
0006
ENDCHAR
STARTCHAR C0173
ENCODING 173
SWIDTH 317 0
DWIDTH 11 0
BBX 8 2 1 7
BITMAP
FF
FF
ENDCHAR
STARTCHAR C0174
ENCODING 174
SWIDTH 519 0
DWIDTH 18 0
BBX 14 13 2 11
BITMAP
0FC0
1860
2010
4F98
4CC8
CCC8
CF0C
CD88
CCC8
4CD8
6010
3860
0F80
ENDCHAR
STARTCHAR C0175
ENCODING 175
SWIDTH 403 0
DWIDTH 14 0
BBX 9 2 2 20
BITMAP
FF80
FF80
ENDCHAR
STARTCHAR C0176
ENCODING 176
SWIDTH 346 0
DWIDTH 12 0
BBX 8 8 2 15
BITMAP
3C
7E
E7
C3
C3
E7
7E
3C
ENDCHAR
STARTCHAR C0177
ENCODING 177
SWIDTH 490 0
DWIDTH 17 0
BBX 14 20 1 0
BITMAP
0300
0300
0300
0300
0300
0300
0300
FFFC
FFFC
0300
0300
0300
0300
0300
0300
0300
0000
0000
FFFC
FFFC
ENDCHAR
STARTCHAR C0178
ENCODING 178
SWIDTH 346 0
DWIDTH 12 0
BBX 9 13 1 13
BITMAP
7C00
FE00
8700
0700
0700
0700
0E00
1C00
3800
3000
6000
FF80
FF80
ENDCHAR
STARTCHAR C0179
ENCODING 179
SWIDTH 346 0
DWIDTH 12 0
BBX 9 13 1 13
BITMAP
7E00
FF00
8700
0700
0F00
7C00
7F00
0780
0380
0380
8780
FF00
7E00
ENDCHAR
STARTCHAR C0180
ENCODING 180
SWIDTH 288 0
DWIDTH 10 0
BBX 5 5 2 18
BITMAP
38
30
70
60
C0
ENDCHAR
STARTCHAR C0181
ENCODING 181
SWIDTH 548 0
DWIDTH 19 0
BBX 16 22 3 -6
BITMAP
E038
E038
E038
E038
E038
E038
E038
E038
E038
E038
E038
E038
E078
F0F8
FF9F
EF0F
E000
E000
E000
E000
E000
E000
ENDCHAR
STARTCHAR C0182
ENCODING 182
SWIDTH 605 0
DWIDTH 21 0
BBX 15 26 2 -4
BITMAP
0FFE
3FFE
7FC6
7FC6
FFC6
FFC6
FFC6
FFC6
FFC6
7FC6
7FC6
3FC6
0FC6
00C6
00C6
00C6
00C6
00C6
00C6
00C6
00C6
00C6
00C6
00C6
00C6
00C6
ENDCHAR
STARTCHAR C0183
ENCODING 183
SWIDTH 259 0
DWIDTH 9 0
BBX 4 4 3 8
BITMAP
F0
F0
F0
F0
ENDCHAR
STARTCHAR C0184
ENCODING 184
SWIDTH 317 0
DWIDTH 11 0
BBX 6 6 3 -6
BITMAP
30
18
0C
0C
FC
F8
ENDCHAR
STARTCHAR C0185
ENCODING 185
SWIDTH 259 0
DWIDTH 9 0
BBX 5 13 1 13
BITMAP
38
78
D8
18
18
18
18
18
18
18
18
18
18
ENDCHAR
STARTCHAR C0186
ENCODING 186
SWIDTH 432 0
DWIDTH 15 0
BBX 11 16 2 6
BITMAP
1F00
7FC0
71C0
E0E0
E0E0
C0E0
C0E0
E0E0
E0E0
F1C0
7F80
1F00
0000
0000
FFC0
FFC0
ENDCHAR
STARTCHAR C0187
ENCODING 187
SWIDTH 519 0
DWIDTH 18 0
BBX 13 14 3 2
BITMAP
C380
E1C0
71C0
30E0
3860
1C70
1C38
0C38
1C70
3870
38E0
71C0
E1C0
C380
ENDCHAR
STARTCHAR C0188
ENCODING 188
SWIDTH 634 0
DWIDTH 22 0
BBX 19 24 1 -1
BITMAP
0000E0
3800C0
7801C0
D80380
180300
180700
180E00
180C00
181C00
183800
183000
187000
00E380
00C780
01C780
038D80
031980
071980
0E3180
0C3FE0
1C3FE0
380180
300180
700000
ENDCHAR
STARTCHAR C0189
ENCODING 189
SWIDTH 692 0
DWIDTH 24 0
BBX 21 24 1 -1
BITMAP
0000E0
3800C0
7801C0
D80380
180300
180700
180E00
180C00
181C00
183800
183000
187000
00E3E0
00C7F0
01C470
038070
030070
0700E0
0E01E0
0C03C0
1C0780
3807F8
3007F8
700000
ENDCHAR
STARTCHAR C0190
ENCODING 190
SWIDTH 692 0
DWIDTH 24 0
BBX 21 24 1 -1
BITMAP
000070
7E0060
FF00E0
C301C0
030180
7E0380
7E0700
070600
070E00
871C00
FE1800
7C3800
0070E0
0061E0
00E1E0
01C360
018660
038660
070C60
060FF8
0E0FF8
1C0060
180060
380000
ENDCHAR
STARTCHAR C0191
ENCODING 191
SWIDTH 461 0
DWIDTH 16 0
BBX 13 24 1 -4
BITMAP
0380
0380
0380
0380
0000
0000
0380
0380
0380
0380
0380
0F80
3F80
7800
7000
E000
E000
E000
E000
E000
7000
7818
3FF8
0FE0
ENDCHAR
STARTCHAR C0192
ENCODING 192
SWIDTH 576 0
DWIDTH 20 0
BBX 19 29 1 0
BITMAP
0E0000
070000
038000
018000
00C000
000000
000000
01E000
01E000
03F000
03F000
033800
073800
073800
061C00
0E1C00
0E1C00
0C0E00
1C0E00
1C0E00
380700
3FFF00
3FFF80
700380
700380
7003C0
E001C0
E001C0
E000E0
ENDCHAR
STARTCHAR C0193
ENCODING 193
SWIDTH 576 0
DWIDTH 20 0
BBX 19 29 1 0
BITMAP
003800
007000
00E000
00C000
018000
000000
000000
01E000
01E000
03F000
03F000
033800
073800
073800
061C00
0E1C00
0E1C00
0C0E00
1C0E00
1C0E00
380700
3FFF00
3FFF80
700380
700380
7003C0
E001C0
E001C0
E000E0
ENDCHAR
STARTCHAR C0194
ENCODING 194
SWIDTH 576 0
DWIDTH 20 0
BBX 19 29 1 0
BITMAP
01C000
03E000
077000
0E3800
1E3C00
000000
000000
01E000
01E000
03F000
03F000
033800
073800
073800
061C00
0E1C00
0E1C00
0C0E00
1C0E00
1C0E00
380700
3FFF00
3FFF80
700380
700380
7003C0
E001C0
E001C0
E000E0
ENDCHAR
STARTCHAR C0195
ENCODING 195
SWIDTH 576 0
DWIDTH 20 0
BBX 19 28 1 0
BITMAP
0F8600
1FC600
18FE00
187C00
000000
000000
01E000
01E000
03F000
03F000
033800
073800
073800
061C00
0E1C00
0E1C00
0C0E00
1C0E00
1C0E00
380700
3FFF00
3FFF80
700380
700380
7003C0
E001C0
E001C0
E000E0
ENDCHAR
STARTCHAR C0196
ENCODING 196
SWIDTH 576 0
DWIDTH 20 0
BBX 19 27 1 0
BITMAP
070E00
070E00
070E00
000000
000000
01E000
01E000
03F000
03F000
033800
073800
073800
061C00
0E1C00
0E1C00
0C0E00
1C0E00
1C0E00
380700
3FFF00
3FFF80
700380
700380
7003C0
E001C0
E001C0
E000E0
ENDCHAR
STARTCHAR C0197
ENCODING 197
SWIDTH 576 0
DWIDTH 20 0
BBX 19 30 1 0
BITMAP
01E000
03F000
063000
063000
063000
07E000
03C000
000000
01E000
01E000
03F000
03F000
033800
073800
073800
061C00
0E1C00
0E1C00
0C0E00
1C0E00
1C0E00
380700
3FFF00
3FFF80
700380
700380
7003C0
E001C0
E001C0
E000E0
ENDCHAR
STARTCHAR C0198
ENCODING 198
SWIDTH 778 0
DWIDTH 27 0
BBX 26 22 -1 0
BITMAP
000FFFC0
001FFFC0
001B8000
003B8000
00738000
00738000
00E38000
00E38000
01C38000
01C38000
0383FF80
0303FF80
07038000
0E038000
0E038000
1FFF8000
1FFF8000
38038000
38038000
70038000
7003FFC0
E003FFC0
ENDCHAR
STARTCHAR C0199
ENCODING 199
SWIDTH 548 0
DWIDTH 19 0
BBX 16 28 2 -6
BITMAP
03F8
0FFE
1E07
3C01
3800
7000
7000
E000
E000
E000
E000
E000
E000
E000
E000
7000
7000
7800
3801
1E07
0FFE
03F8
0060
0030
0030
0030
03F0
03E0
ENDCHAR
STARTCHAR C0200
ENCODING 200
SWIDTH 490 0
DWIDTH 17 0
BBX 12 29 3 0
BITMAP
7000
3800
1C00
0C00
0600
0000
0000
FFF0
FFF0
E000
E000
E000
E000
E000
E000
E000
E000
FFE0
FFE0
E000
E000
E000
E000
E000
E000
E000
E000
FFF0
FFF0
ENDCHAR
STARTCHAR C0201
ENCODING 201
SWIDTH 490 0
DWIDTH 17 0
BBX 12 29 3 0
BITMAP
01C0
0380
0700
0600
0C00
0000
0000
FFF0
FFF0
E000
E000
E000
E000
E000
E000
E000
E000
FFE0
FFE0
E000
E000
E000
E000
E000
E000
E000
E000
FFF0
FFF0
ENDCHAR
STARTCHAR C0202
ENCODING 202
SWIDTH 490 0
DWIDTH 17 0
BBX 12 29 3 0
BITMAP
0E00
1F00
3B80
71C0
F1E0
0000
0000
FFF0
FFF0
E000
E000
E000
E000
E000
E000
E000
E000
FFE0
FFE0
E000
E000
E000
E000
E000
E000
E000
E000
FFF0
FFF0
ENDCHAR
STARTCHAR C0203
ENCODING 203
SWIDTH 490 0
DWIDTH 17 0
BBX 12 27 3 0
BITMAP
3870
3870
3870
0000
0000
FFF0
FFF0
E000
E000
E000
E000
E000
E000
E000
E000
FFE0
FFE0
E000
E000
E000
E000
E000
E000
E000
E000
FFF0
FFF0
ENDCHAR
STARTCHAR C0204
ENCODING 204
SWIDTH 259 0
DWIDTH 9 0
BBX 6 29 0 0
BITMAP
E0
70
38
18
0C
00
00
1C
1C
1C
1C
1C
1C
1C
1C
1C
1C
1C
1C
1C
1C
1C
1C
1C
1C
1C
1C
1C
1C
ENDCHAR
STARTCHAR C0205
ENCODING 205
SWIDTH 259 0
DWIDTH 9 0
BBX 6 29 3 0
BITMAP
1C
38
70
60
C0
00
00
E0
E0
E0
E0
E0
E0
E0
E0
E0
E0
E0
E0
E0
E0
E0
E0
E0
E0
E0
E0
E0
E0
ENDCHAR
STARTCHAR C0206
ENCODING 206
SWIDTH 259 0
DWIDTH 9 0
BBX 11 29 -1 0
BITMAP
0E00
1F00
3B80
71C0
F1E0
0000
0000
0E00
0E00
0E00
0E00
0E00
0E00
0E00
0E00
0E00
0E00
0E00
0E00
0E00
0E00
0E00
0E00
0E00
0E00
0E00
0E00
0E00
0E00
ENDCHAR
STARTCHAR C0207
ENCODING 207
SWIDTH 259 0
DWIDTH 9 0
BBX 10 27 0 0
BITMAP
E1C0
E1C0
E1C0
0000
0000
1C00
1C00
1C00
1C00
1C00
1C00
1C00
1C00
1C00
1C00
1C00
1C00
1C00
1C00
1C00
1C00
1C00
1C00
1C00
1C00
1C00
1C00
ENDCHAR
STARTCHAR C0208
ENCODING 208
SWIDTH 634 0
DWIDTH 22 0
BBX 20 22 0 0
BITMAP
1FF800
1FFF00
1C0F80
1C03C0
1C01E0
1C00E0
1C00E0
1C0070
1C0070
1C0070
FFE070
FFE070
1C0070
1C0070
1C0070
1C00E0
1C00E0
1C01C0
1C03C0
1C0F80
1FFE00
1FF800
ENDCHAR
STARTCHAR C0209
ENCODING 209
SWIDTH 663 0
DWIDTH 23 0
BBX 17 28 3 0
BITMAP
1F0C00
3F8C00
31FC00
30F800
000000
000000
F00380
F80380
FC0380
FC0380
EE0380
EE0380
E70380
E70380
E38380
E3C380
E1C380
E1E380
E0E380
E0F380
E07380
E03B80
E03B80
E01F80
E01F80
E00F80
E00F80
E00780
ENDCHAR
STARTCHAR C0210
ENCODING 210
SWIDTH 663 0
DWIDTH 23 0
BBX 20 29 2 0
BITMAP
070000
038000
01C000
00C000
006000
000000
000000
01FC00
0FFF00
1E0780
3C01C0
7801E0
7000E0
7000F0
E00070
E00070
E00070
E00070
E00070
E00070
E00070
E00070
7000E0
7000E0
7001C0
3803C0
1E0780
0FFF00
03F800
ENDCHAR
STARTCHAR C0211
ENCODING 211
SWIDTH 663 0
DWIDTH 23 0
BBX 20 29 2 0
BITMAP
001C00
003800
007000
006000
00C000
000000
000000
01FC00
0FFF00
1E0780
3C01C0
7801E0
7000E0
7000F0
E00070
E00070
E00070
E00070
E00070
E00070
E00070
E00070
7000E0
7000E0
7001C0
3803C0
1E0780
0FFF00
03F800
ENDCHAR
STARTCHAR C0212
ENCODING 212
SWIDTH 663 0
DWIDTH 23 0
BBX 20 29 2 0
BITMAP
00E000
01F000
03B800
071C00
0F1E00
000000
000000
01FC00
0FFF00
1E0780
3C01C0
7801E0
7000E0
7000F0
E00070
E00070
E00070
E00070
E00070
E00070
E00070
E00070
7000E0
7000E0
7001C0
3803C0
1E0780
0FFF00
03F800
ENDCHAR
STARTCHAR C0213
ENCODING 213
SWIDTH 663 0
DWIDTH 23 0
BBX 20 28 2 0
BITMAP
07C300
0FE300
0C7F00
0C3E00
000000
000000
01FC00
0FFF00
1E0780
3C01C0
7801E0
7000E0
7000F0
E00070
E00070
E00070
E00070
E00070
E00070
E00070
E00070
7000E0
7000E0
7001C0
3803C0
1E0780
0FFF00
03F800
ENDCHAR
STARTCHAR C0214
ENCODING 214
SWIDTH 663 0
DWIDTH 23 0
BBX 20 27 2 0
BITMAP
070E00
070E00
070E00
000000
000000
01FC00
0FFF00
1E0780
3C01C0
7801E0
7000E0
7000F0
E00070
E00070
E00070
E00070
E00070
E00070
E00070
E00070
7000E0
7000E0
7001C0
3803C0
1E0780
0FFF00
03F800
ENDCHAR
STARTCHAR C0215
ENCODING 215
SWIDTH 490 0
DWIDTH 17 0
BBX 14 14 2 3
BITMAP
4008
E01C
7038
3870
1CE0
0FC0
0780
0780
0FC0
1CE0
3870
7038
E01C
4008
ENDCHAR
STARTCHAR C0216
ENCODING 216
SWIDTH 663 0
DWIDTH 23 0
BBX 20 30 2 -4
BITMAP
0001C0
0001C0
000380
000380
03FB00
0FFF00
1E0F80
380FC0
701DC0
701DE0
E038E0
E038E0
E070E0
E070E0
E0E0F0
E0E0F0
E0C0E0
E1C0E0
E180E0
E380E0
7301E0
7701C0
3E0380
3E0F00
1FFE00
1FF800
380000
380000
700000
700000
ENDCHAR
STARTCHAR C0217
ENCODING 217
SWIDTH 634 0
DWIDTH 22 0
BBX 17 29 3 0
BITMAP
1C0000
0E0000
070000
030000
018000
000000
000000
E00380
E00380
E00380
E00380
E00380
E00380
E00380
E00380
E00380
E00380
E00380
E00380
E00380
E00380
E00380
E00380
E00380
700700
780700
3C1E00
1FFC00
07F000
ENDCHAR
STARTCHAR C0218
ENCODING 218
SWIDTH 634 0
DWIDTH 22 0
BBX 17 29 3 0
BITMAP
007000
00E000
01C000
018000
030000
000000
000000
E00380
E00380
E00380
E00380
E00380
E00380
E00380
E00380
E00380
E00380
E00380
E00380
E00380
E00380
E00380
E00380
E00380
700700
780700
3C1E00
1FFC00
07F000
ENDCHAR
STARTCHAR C0219
ENCODING 219
SWIDTH 634 0
DWIDTH 22 0
BBX 17 29 3 0
BITMAP
038000
07C000
0EE000
1C7000
3C7800
000000
000000
E00380
E00380
E00380
E00380
E00380
E00380
E00380
E00380
E00380
E00380
E00380
E00380
E00380
E00380
E00380
E00380
E00380
700700
780700
3C1E00
1FFC00
07F000
ENDCHAR
STARTCHAR C0220
ENCODING 220
SWIDTH 634 0
DWIDTH 22 0
BBX 17 27 3 0
BITMAP
0E1C00
0E1C00
0E1C00
000000
000000
E00380
E00380
E00380
E00380
E00380
E00380
E00380
E00380
E00380
E00380
E00380
E00380
E00380
E00380
E00380
E00380
E00380
700700
780700
3C1E00
1FFC00
07F000
ENDCHAR
STARTCHAR C0221
ENCODING 221
SWIDTH 490 0
DWIDTH 17 0
BBX 17 29 0 0
BITMAP
003800
007000
00E000
00C000
018000
000000
000000
700700
700700
780F00
380E00
3C1E00
1C1C00
1E3C00
0E3800
0F3800
077000
036000
03E000
01C000
01C000
01C000
01C000
01C000
01C000
01C000
01C000
01C000
01C000
ENDCHAR
STARTCHAR C0222
ENCODING 222
SWIDTH 519 0
DWIDTH 18 0
BBX 14 22 3 0
BITMAP
E000
E000
E000
E000
FFC0
FFF0
E078
E038
E01C
E01C
E01C
E01C
E01C
E038
E070
FFE0
FF80
E000
E000
E000
E000
E000
ENDCHAR
STARTCHAR C0223
ENCODING 223
SWIDTH 519 0
DWIDTH 18 0
BBX 15 24 3 0
BITMAP
0FC0
3FE0
78F0
7078
E038
E038
E038
E038
E0F8
E1F0
E3C0
E380
E380
E3C0
E1E0
E0F8
E07C
E01E
E00E
E00E
E00E
E21C
E3FC
E1F0
ENDCHAR
STARTCHAR C0224
ENCODING 224
SWIDTH 490 0
DWIDTH 17 0
BBX 13 23 2 0
BITMAP
3800
1800
1C00
0C00
0600
0000
0000
0FC0
3FF0
7070
4038
0038
0038
0038
0FF8
3FF8
7038
E038
E038
E078
F0F8
7FF8
1F38
ENDCHAR
STARTCHAR C0225
ENCODING 225
SWIDTH 490 0
DWIDTH 17 0
BBX 13 23 2 0
BITMAP
01C0
0180
0380
0300
0600
0000
0000
0FC0
3FF0
7070
4038
0038
0038
0038
0FF8
3FF8
7038
E038
E038
E078
F0F8
7FF8
1F38
ENDCHAR
STARTCHAR C0226
ENCODING 226
SWIDTH 490 0
DWIDTH 17 0
BBX 13 23 2 0
BITMAP
0700
0F80
0D80
18C0
38E0
0000
0000
0FC0
3FF0
7070
4038
0038
0038
0038
0FF8
3FF8
7038
E038
E038
E078
F0F8
7FF8
1F38
ENDCHAR
STARTCHAR C0227
ENCODING 227
SWIDTH 490 0
DWIDTH 17 0
BBX 13 22 2 0
BITMAP
3C30
7F30
67F0
61E0
0000
0000
0FC0
3FF0
7070
4038
0038
0038
0038
0FF8
3FF8
7038
E038
E038
E078
F0F8
7FF8
1F38
ENDCHAR
STARTCHAR C0228
ENCODING 228
SWIDTH 490 0
DWIDTH 17 0
BBX 13 22 2 0
BITMAP
38E0
38E0
38E0
0000
0000
0000
0FC0
3FF0
7070
4038
0038
0038
0038
0FF8
3FF8
7038
E038
E038
E078
F0F8
7FF8
1F38
ENDCHAR
STARTCHAR C0229
ENCODING 229
SWIDTH 490 0
DWIDTH 17 0
BBX 13 23 2 0
BITMAP
0F80
18C0
18C0
18C0
0F80
0000
0000
0FC0
3FF0
7070
4038
0038
0038
0038
0FF8
3FF8
7038
E038
E038
E078
F0F8
7FF8
1F38
ENDCHAR
STARTCHAR C0230
ENCODING 230
SWIDTH 778 0
DWIDTH 27 0
BBX 24 16 2 0
BITMAP
0FC1F0
3FE7FC
707E1E
403C0E
003C07
003807
003807
0FFFFF
3FFFFF
783800
E03800
E03800
E07C00
F0EE06
7FC7FE
1F03F8
ENDCHAR
STARTCHAR C0231
ENCODING 231
SWIDTH 432 0
DWIDTH 15 0
BBX 12 22 2 -6
BITMAP
0FC0
1FF0
3870
7010
7000
E000
E000
E000
E000
E000
E000
F000
7010
7870
3FF0
0FC0
0600
0300
0180
0180
1F80
1F00
ENDCHAR
STARTCHAR C0232
ENCODING 232
SWIDTH 490 0
DWIDTH 17 0
BBX 14 23 2 0
BITMAP
3800
1800
1C00
0C00
0600
0000
0000
0FC0
1FF0
3878
7038
701C
E01C
E01C
FFFC
FFFC
E000
E000
E000
7000
7818
3FF8
0FE0
ENDCHAR
STARTCHAR C0233
ENCODING 233
SWIDTH 490 0
DWIDTH 17 0
BBX 14 23 2 0
BITMAP
01C0
0180
0380
0300
0600
0000
0000
0FC0
1FF0
3878
7038
701C
E01C
E01C
FFFC
FFFC
E000
E000
E000
7000
7818
3FF8
0FE0
ENDCHAR
STARTCHAR C0234
ENCODING 234
SWIDTH 490 0
DWIDTH 17 0
BBX 14 23 2 0
BITMAP
0700
0F80
0D80
18C0
38E0
0000
0000
0FC0
1FF0
3878
7038
701C
E01C
E01C
FFFC
FFFC
E000
E000
E000
7000
7818
3FF8
0FE0
ENDCHAR
STARTCHAR C0235
ENCODING 235
SWIDTH 490 0
DWIDTH 17 0
BBX 14 22 2 0
BITMAP
38E0
38E0
38E0
0000
0000
0000
0FC0
1FF0
3878
7038
701C
E01C
E01C
FFFC
FFFC
E000
E000
E000
7000
7818
3FF8
0FE0
ENDCHAR
STARTCHAR C0236
ENCODING 236
SWIDTH 230 0
DWIDTH 8 0
BBX 6 23 0 0
BITMAP
E0
60
70
30
18
00
00
1C
1C
1C
1C
1C
1C
1C
1C
1C
1C
1C
1C
1C
1C
1C
1C
ENDCHAR
STARTCHAR C0237
ENCODING 237
SWIDTH 230 0
DWIDTH 8 0
BBX 5 23 2 0
BITMAP
38
30
70
60
C0
00
00
70
70
70
70
70
70
70
70
70
70
70
70
70
70
70
70
ENDCHAR
STARTCHAR C0238
ENCODING 238
SWIDTH 230 0
DWIDTH 8 0
BBX 9 23 -1 0
BITMAP
1C00
3E00
3600
6300
E380
0000
0000
0E00
0E00
0E00
0E00
0E00
0E00
0E00
0E00
0E00
0E00
0E00
0E00
0E00
0E00
0E00
0E00
ENDCHAR
STARTCHAR C0239
ENCODING 239
SWIDTH 230 0
DWIDTH 8 0
BBX 8 22 0 0
BITMAP
E7
E7
E7
00
00
00
1C
1C
1C
1C
1C
1C
1C
1C
1C
1C
1C
1C
1C
1C
1C
1C
ENDCHAR
STARTCHAR C0240
ENCODING 240
SWIDTH 519 0
DWIDTH 18 0
BBX 14 24 2 0
BITMAP
0700
038C
03FC
07F0
1FE0
1870
0070
0038
0FB8
3FFC
78FC
703C
F01C
E01C
E01C
E01C
E01C
E01C
E01C
F038
7038
7870
3FE0
0F80
ENDCHAR
STARTCHAR C0241
ENCODING 241
SWIDTH 519 0
DWIDTH 18 0
BBX 13 22 3 0
BITMAP
7860
FE60
CFE0
C3C0
0000
0000
E7C0
EFF0
F870
F078
E038
E038
E038
E038
E038
E038
E038
E038
E038
E038
E038
E038
ENDCHAR
STARTCHAR C0242
ENCODING 242
SWIDTH 519 0
DWIDTH 18 0
BBX 15 23 2 0
BITMAP
1C00
0C00
0E00
0600
0300
0000
0000
07E0
1FF8
383C
701C
701E
E00E
E00E
E00E
E00E
E00E
E00E
F01C
701C
7838
3FF0
0FC0
ENDCHAR
STARTCHAR C0243
ENCODING 243
SWIDTH 519 0
DWIDTH 18 0
BBX 15 23 2 0
BITMAP
00E0
00C0
01C0
0180
0300
0000
0000
07E0
1FF8
383C
701C
701E
E00E
E00E
E00E
E00E
E00E
E00E
F01C
701C
7838
3FF0
0FC0
ENDCHAR
STARTCHAR C0244
ENCODING 244
SWIDTH 519 0
DWIDTH 18 0
BBX 15 23 2 0
BITMAP
0700
0F80
0D80
18C0
38E0
0000
0000
07E0
1FF8
383C
701C
701E
E00E
E00E
E00E
E00E
E00E
E00E
F01C
701C
7838
3FF0
0FC0
ENDCHAR
STARTCHAR C0245
ENCODING 245
SWIDTH 519 0
DWIDTH 18 0
BBX 15 22 2 0
BITMAP
3C30
7F30
67F0
61E0
0000
0000
07E0
1FF8
383C
701C
701E
E00E
E00E
E00E
E00E
E00E
E00E
F01C
701C
7838
3FF0
0FC0
ENDCHAR
STARTCHAR C0246
ENCODING 246
SWIDTH 519 0
DWIDTH 18 0
BBX 15 22 2 0
BITMAP
38E0
38E0
38E0
0000
0000
0000
07E0
1FF8
383C
701C
701E
E00E
E00E
E00E
E00E
E00E
E00E
F01C
701C
7838
3FF0
0FC0
ENDCHAR
STARTCHAR C0247
ENCODING 247
SWIDTH 490 0
DWIDTH 17 0
BBX 16 16 1 2
BITMAP
03C0
03C0
03C0
03C0
0000
0000
0000
FFFF
FFFF
0000
0000
0000
03C0
03C0
03C0
03C0
ENDCHAR
STARTCHAR C0248
ENCODING 248
SWIDTH 548 0
DWIDTH 19 0
BBX 15 21 2 -3
BITMAP
0018
0038
07F0
1FF0
387C
707C
70DE
E0CE
E18E
E18E
E30E
E30E
E60E
F61C
7E1C
7C38
1FF0
1FC0
1800
3000
3000
ENDCHAR
STARTCHAR C0249
ENCODING 249
SWIDTH 519 0
DWIDTH 18 0
BBX 13 23 3 0
BITMAP
7000
3000
3800
1800
0C00
0000
0000
E038
E038
E038
E038
E038
E038
E038
E038
E038
E038
E038
E038
F078
70F8
7FB8
1F38
ENDCHAR
STARTCHAR C0250
ENCODING 250
SWIDTH 519 0
DWIDTH 18 0
BBX 13 23 3 0
BITMAP
01C0
0180
0380
0300
0600
0000
0000
E038
E038
E038
E038
E038
E038
E038
E038
E038
E038
E038
E038
F078
70F8
7FB8
1F38
ENDCHAR
STARTCHAR C0251
ENCODING 251
SWIDTH 519 0
DWIDTH 18 0
BBX 13 23 3 0
BITMAP
0E00
1F00
1B00
3180
71C0
0000
0000
E038
E038
E038
E038
E038
E038
E038
E038
E038
E038
E038
E038
F078
70F8
7FB8
1F38
ENDCHAR
STARTCHAR C0252
ENCODING 252
SWIDTH 519 0
DWIDTH 18 0
BBX 13 22 3 0
BITMAP
71C0
71C0
71C0
0000
0000
0000
E038
E038
E038
E038
E038
E038
E038
E038
E038
E038
E038
E038
F078
70F8
7FB8
1F38
ENDCHAR
STARTCHAR C0253
ENCODING 253
SWIDTH 461 0
DWIDTH 16 0
BBX 14 29 1 -6
BITMAP
00E0
00C0
01C0
0180
0300
0000
0000
E01C
E01C
E01C
7038
7038
7030
3870
3870
1C60
1CE0
1CE0
0EC0
0FC0
0FC0
0780
0780
0700
0700
0700
0E00
0E00
1E00
ENDCHAR
STARTCHAR C0254
ENCODING 254
SWIDTH 519 0
DWIDTH 18 0
BBX 14 30 3 -6
BITMAP
E000
E000
E000
E000
E000
E000
E000
E000
E3E0
EFF0
FC78
F038
E03C
E01C
E01C
E01C
E01C
E01C
E01C
E03C
F038
FC78
EFF0
E7C0
E000
E000
E000
E000
E000
E000
ENDCHAR
STARTCHAR C0255
ENCODING 255
SWIDTH 461 0
DWIDTH 16 0
BBX 14 28 1 -6
BITMAP
38E0
38E0
38E0
0000
0000
0000
E01C
E01C
E01C
7038
7038
7030
3870
3870
1C60
1CE0
1CE0
0EC0
0FC0
0FC0
0780
0780
0700
0700
0700
0E00
0E00
1E00
ENDCHAR
ENDFONT

